# xmcd
#
# Track frame offsets:
#	150
#	10780
#	25695
#	41109
#	58382
#	74023
#	89369
#	106589
#	121128
#	137309
#	151450
#	167872
#	182464
#
# Disc length: 2663 seconds
#
# Revision: 1
# Processed by: cddbd v1.5.2PL0 Copyright (c) Steve Scherf et al.
# Submitted via: audiograbber 1.83.01
#
DISCID=a40a650d
DTITLE=Sex Slaves - Call Of The Wild
DYEAR=2012
DGENRE=Hard Rock
TTITLE0=W.T.F.R.U.
TTITLE1=Lose That Dress
TTITLE2=Burning Bridges
TTITLE3=My Black Heart
TTITLE4=I Wanna Kill You
TTITLE5=Sik Fuk
TTITLE6=Call Of The Wild
TTITLE7=Get In Line
TTITLE8=Rock and Roll Band
TTITLE9=Let's Make Out
TTITLE10=I Swear
TTITLE11=Cool Ride
TTITLE12=I Got Drunk
EXTD=
EXTT0=
EXTT1=
EXTT2=
EXTT3=
EXTT4=
EXTT5=
EXTT6=
EXTT7=
EXTT8=
EXTT9=
EXTT10=
EXTT11=
EXTT12=
PLAYORDER=
